<svg xmlns="http://www.w3.org/2000/svg" xmlns:xlink="http://www.w3.org/1999/xlink" width="1086" height="262" viewBox="0 0 1086 262">
    <defs>
        <path id="a" d="M0 0h1160v302H0z"/>
        <path id="c" d="M0 1077.997V.137h1567.941v1077.86z"/>
    </defs>
    <g fill="none" fill-rule="evenodd" transform="translate(-35 -40)">
        <mask id="b" fill="#fff">
            <use xlink:href="#a"/>
        </mask>
        <g mask="url(#b)">
            <g transform="translate(-206 152)">
                <mask id="d" fill="#fff">
                    <use xlink:href="#c"/>
                </mask>
                <path fill="#88D3E6" d="M1567.945 539.1c0 297.677-351.044 538.897-783.842 538.897-433.047 0-784.107-241.22-784.107-538.897C-.004 241.374 351.056.137 784.103.137c432.798 0 783.842 241.237 783.842 538.963" mask="url(#d)"/>
            </g>
            <path fill="#5EC8DE" d="M1219 616.06C1219 853.52 938.39 1046 592.363 1046 246.361 1046-34 853.52-34 616.06-34 378.43 246.361 186 592.363 186 938.389 186 1219 378.43 1219 616.06"/>
        </g>
        <ellipse cx="364" cy="306" fill="#2BA4BE" mask="url(#b)" rx="47" ry="16"/>
        <ellipse cx="642.5" cy="233" fill="#2BA4BE" mask="url(#b)" rx="40.5" ry="14"/>
        <ellipse cx="230.295" cy="235.323" fill="#2BA4BE" mask="url(#b)" rx="25.943" ry="8.962" transform="rotate(-13 230.295 235.323)"/>
    </g>
</svg>
